<svg width="256" height="256" viewBox="0 0 256 256" fill="none" xmlns="http://www.w3.org/2000/svg">
<rect width="256" height="256" fill="white"/>
<path d="M213.256 120.862C218.232 124.573 220.72 126.428 221.539 128.665C222.256 130.623 222.181 132.782 221.329 134.685C220.356 136.86 217.744 138.537 212.522 141.892L95.0937 217.323C88.4334 221.601 85.1033 223.74 82.4034 223.518C80.0521 223.325 77.9061 222.104 76.539 220.181C74.9692 217.973 75.1073 214.018 75.3836 206.107L80.9314 47.2372C81.2077 39.3261 81.3458 35.3705 83.0658 33.2776C84.5637 31.455 86.7897 30.3864 89.1487 30.3576C91.8575 30.3245 95.0303 32.6908 101.376 37.4232L213.256 120.862Z" fill="#D9D9D9"/>
<g style="mix-blend-mode:luminosity">
<path d="M187.537 115.814C192.759 119.169 195.371 120.846 196.344 123.021C197.196 124.924 197.271 127.083 196.554 129.041C195.735 131.278 193.247 133.134 188.271 136.845L112.962 193.009C106.616 197.742 103.443 200.108 100.734 200.075C98.3754 200.046 96.1494 198.978 94.6515 197.155C92.9315 195.062 92.7933 191.106 92.5171 183.195L88.7826 76.2558C88.5064 68.3447 88.3683 64.3891 89.9381 62.1814C91.3052 60.2587 93.4512 59.0374 95.8025 58.8442C98.5024 58.6222 101.832 60.7613 108.493 65.0396L187.537 115.814Z" fill="#00FF00"/>
</g>
<path d="M167.736 113.254C173.18 116.236 175.902 117.727 177.025 119.829C178.007 121.667 178.233 123.816 177.654 125.819C176.993 128.108 174.641 130.133 169.936 134.182L124.662 173.144C118.662 178.308 115.662 180.89 112.957 181.045C110.602 181.181 108.307 180.271 106.685 178.557C104.823 176.589 104.41 172.653 103.582 164.78L96.4709 97.1194C95.6434 89.2468 95.2297 85.3105 96.6417 82.9986C97.8714 80.9852 99.927 79.6173 102.259 79.2605C104.937 78.8507 108.408 80.7523 115.351 84.5556L167.736 113.254Z" fill="#D9D9D9"/>
<g style="mix-blend-mode:luminosity">
<path d="M153.101 113.131C158.74 115.727 161.559 117.024 162.826 119.042C163.934 120.808 164.309 122.936 163.872 124.974C163.372 127.304 161.166 129.487 156.755 133.855L132.545 157.826C126.92 163.395 124.107 166.18 121.42 166.524C119.08 166.824 116.727 166.076 114.99 164.479C112.995 162.646 112.308 158.748 110.933 150.952L104.195 112.737C102.82 104.941 102.133 101.043 103.38 98.6384C104.467 96.5442 106.422 95.0362 108.723 94.5175C111.366 93.922 114.961 95.5769 122.152 98.8866L153.101 113.131Z" fill="#00FF00"/>
</g>
</svg>
